<svg width="353" height="90" viewBox="0 0 353 90" fill="none" xmlns="http://www.w3.org/2000/svg">
<path d="M33.6153 0L7.52979 43.6061H23.1274L41.4141 12.9011L33.6153 0Z" fill="#FF4F4A"/>
<path d="M41.4144 12.9009L67.4998 56.2489H52.1711L33.7017 25.8517L41.4144 12.9009Z" fill="#FF3724"/>
<path d="M41.4135 12.9009L36.0352 29.6725L33.6147 25.802L41.4135 12.9009Z" fill="#D92E1A"/>
<path d="M7.52951 43.6064L0 56.2496H52.1705L44.4883 43.6064H7.52951Z" fill="#C6271A"/>
<path d="M44.3711 43.6064H40.3315L52.1699 56.2496L44.3711 43.6064Z" fill="#3A1317"/>
<path d="M111.378 54.1876V15.1003H121.397V24.4776L120.68 23.1186C121.54 19.8267 122.945 17.6069 124.9 16.4593C126.901 15.2664 129.264 14.6699 131.99 14.6699H134.277V23.9793H130.91C128.283 23.9793 126.161 24.7872 124.538 26.4105C122.914 27.9885 122.106 30.2309 122.106 33.1377V54.1801H111.37L111.378 54.1876Z" fill="#20154C"/>
<path d="M158.317 55.0485C155.644 55.0485 153.16 54.5728 150.873 53.6139C148.63 52.6098 146.818 51.1526 145.429 49.2499L146.433 47.0302V54.1878H136.414V0H147.15V22.5524L145.505 20.4082C146.796 18.4527 148.532 16.9502 150.729 15.9007C152.972 14.8059 155.524 14.2548 158.393 14.2548C162.115 14.2548 165.482 15.1608 168.487 16.9728C171.492 18.7849 173.878 21.2462 175.645 24.3494C177.412 27.4072 178.295 30.8425 178.295 34.6554C178.295 38.4682 177.412 41.8583 175.645 44.9614C173.931 48.0645 171.568 50.5184 168.555 52.3379C165.55 54.15 162.138 55.056 158.317 55.056V55.0485ZM157.026 45.3842C159.027 45.3842 160.794 44.9312 162.326 44.0252C163.851 43.1192 165.044 41.8507 165.905 40.235C166.766 38.6117 167.196 36.7544 167.196 34.6478C167.196 32.5413 166.766 30.7142 165.905 29.1362C165.044 27.5129 163.851 26.252 162.326 25.3385C160.801 24.3871 159.034 23.9039 157.026 23.9039C155.018 23.9039 153.402 24.3569 151.869 25.263C150.389 26.169 149.219 27.4374 148.358 29.0607C147.551 30.684 147.143 32.5413 147.143 34.6478C147.143 36.7544 147.551 38.6117 148.358 40.235C149.219 41.8583 150.389 43.1192 151.869 44.0252C153.394 44.9312 155.116 45.3842 157.026 45.3842Z" fill="#20154C"/>
<path d="M182.002 54.1874V15.1H192.739V54.1874H182.002ZM182.002 11.5967V0.860352H192.739V11.5967H182.002Z" fill="#20154C"/>
<path d="M216.846 54.6177C212.12 54.6177 208.45 53.3493 205.823 50.82C203.248 48.2453 201.957 44.6666 201.957 40.0836V24.4094H195.374V15.1H195.728C197.729 15.1 199.262 14.6017 200.311 13.5975C201.406 12.5933 201.957 11.0908 201.957 9.09004V6.22852H212.694V15.1075H221.86V24.4169H212.694V39.3814C212.694 40.7178 212.935 41.8428 213.411 42.7488C213.887 43.6095 214.627 44.2513 215.631 44.6816C216.635 45.112 217.873 45.3234 219.353 45.3234C219.685 45.3234 220.07 45.3008 220.501 45.2555C220.931 45.2102 221.384 45.1573 221.86 45.112V54.2024C221.142 54.3006 220.334 54.3912 219.428 54.4894C218.522 54.5875 217.662 54.6328 216.854 54.6328L216.846 54.6177Z" fill="#20154C"/>
<path d="M225.567 54.1876V15.1003H235.586V24.4776L234.869 23.1186C235.73 19.8267 237.134 17.6069 239.09 16.4593C241.09 15.2664 243.454 14.6699 246.179 14.6699H248.467V23.9793H245.099C242.472 23.9793 240.35 24.7872 238.727 26.4105C237.104 27.9885 236.296 30.2309 236.296 33.1377V54.1801H225.56L225.567 54.1876Z" fill="#20154C"/>
<path d="M262.706 55.0486C259.89 55.0486 257.459 54.5956 255.405 53.6895C253.351 52.7835 251.781 51.4924 250.679 49.8239C249.584 48.1024 249.033 46.079 249.033 43.7384C249.033 41.5413 249.531 39.6084 250.535 37.9398C251.539 36.2184 253.065 34.7914 255.118 33.6438C257.217 32.4962 259.822 31.6883 262.925 31.2126L274.877 29.2798V37.1546L264.858 38.944C263.333 39.2309 262.163 39.7292 261.347 40.4465C260.539 41.1185 260.132 42.0925 260.132 43.3835C260.132 44.5765 260.585 45.5051 261.491 46.1771C262.397 46.8491 263.522 47.1813 264.858 47.1813C266.625 47.1813 268.172 46.7962 269.509 46.0337C270.845 45.2711 271.872 44.2443 272.589 42.9532C273.352 41.6168 273.737 40.1596 273.737 38.5892V28.4266C273.737 26.9468 273.14 25.7085 271.948 24.7044C270.8 23.7002 269.229 23.2019 267.221 23.2019C265.213 23.2019 263.62 23.7304 262.14 24.7799C260.705 25.8293 259.656 27.211 258.991 28.9325L250.399 24.8554C251.162 22.6582 252.377 20.7783 254.046 19.2003C255.715 17.6223 257.723 16.4067 260.056 15.546C262.397 14.6852 264.949 14.2549 267.719 14.2549C271.011 14.2549 273.926 14.8513 276.455 16.0443C278.984 17.2372 280.94 18.9058 282.322 21.0576C283.756 23.1566 284.466 25.6179 284.466 28.4341V54.203H274.447V47.9061L276.878 47.4757C275.73 49.1972 274.469 50.6242 273.088 51.7718C271.706 52.8666 270.151 53.682 268.437 54.203C266.723 54.7768 264.813 55.0637 262.714 55.0637L262.706 55.0486Z" fill="#20154C"/>
<path d="M83.9859 54.9353C81.1697 54.9353 78.7385 54.4823 76.6849 53.5763C74.6312 52.6702 73.0608 51.3792 71.9584 49.7106C70.8637 47.9891 70.3125 45.9657 70.3125 43.6251C70.3125 41.428 70.8108 39.4952 71.815 37.8266C72.8192 36.1051 74.3443 34.6781 76.398 33.5305C78.4969 32.3829 81.1017 31.575 84.2049 31.0993L96.1568 29.1665V37.0413L86.1377 38.8307C84.6126 39.1176 83.4423 39.616 82.6269 40.3332C81.819 41.0052 81.4113 41.9792 81.4113 43.2703C81.4113 44.4632 81.8643 45.3919 82.7703 46.0638C83.6763 46.7358 84.8013 47.068 86.1377 47.068C87.9044 47.068 89.4522 46.6829 90.7886 45.9204C92.125 45.1578 93.1518 44.131 93.8691 42.8399C94.6317 41.5035 95.0167 40.0463 95.0167 38.4759V28.3133C95.0167 26.8335 94.4203 25.5952 93.2273 24.5911C92.0797 23.5869 90.5093 23.0886 88.5009 23.0886C86.4926 23.0886 84.8995 23.6171 83.4196 24.6666C81.9851 25.7161 80.9356 27.0977 80.2712 28.8192L71.6791 24.7421C72.4417 22.545 73.6572 20.665 75.3258 19.087C76.9944 17.509 79.0028 16.2934 81.3358 15.4327C83.6763 14.572 86.2283 14.1416 88.9992 14.1416C92.2911 14.1416 95.2055 14.7381 97.7348 15.931C100.264 17.1239 102.22 18.7925 103.601 20.9443C105.036 23.0433 105.746 25.5046 105.746 28.3209V54.0897H95.7265V47.7928L98.1576 47.3625C97.01 49.0839 95.7491 50.5109 94.3674 51.6585C92.9857 52.7533 91.4304 53.5687 89.7165 54.0897C88.0026 54.6635 86.0924 54.9504 83.9934 54.9504L83.9859 54.9353Z" fill="#FF4F4A"/>
<path d="M289.767 54.1877V0H300.503V54.1877H289.767Z" fill="#20154C"/>
<path d="M305.78 54.1874V15.1H316.516V54.1874H305.78ZM305.78 11.5967V0.860352H316.516V11.5967H305.78Z" fill="#20154C"/>
<path d="M337.121 55.0483C332.825 55.0483 329.08 54.0441 325.879 52.0433C322.73 49.9897 320.579 47.249 319.438 43.8136L327.313 40.0914C328.318 42.1903 329.677 43.8363 331.39 45.0292C333.112 46.2221 335.015 46.8186 337.121 46.8186C338.646 46.8186 339.816 46.5091 340.632 45.8899C341.44 45.2708 341.847 44.4101 341.847 43.3153C341.847 42.7415 341.704 42.2658 341.417 41.8808C341.13 41.4504 340.7 41.0729 340.126 40.7332C339.552 40.4009 338.835 40.114 337.982 39.8724L331.322 38.0151C328.129 37.1091 325.667 35.6519 323.954 33.6511C322.232 31.5974 321.379 29.1889 321.379 26.418C321.379 23.9868 321.998 21.8577 323.236 20.0456C324.474 18.2336 326.219 16.8217 328.461 15.8251C330.703 14.7756 333.278 14.2471 336.192 14.2471C340.013 14.2471 343.35 15.1531 346.211 16.9651C349.118 18.7319 351.172 21.2386 352.365 24.4851L344.422 28.2074C343.848 26.5841 342.799 25.293 341.274 24.3417C339.794 23.3375 338.103 22.8392 336.192 22.8392C334.811 22.8392 333.708 23.1261 332.9 23.6999C332.138 24.2737 331.753 25.059 331.753 26.0631C331.753 26.5916 331.896 27.0673 332.183 27.4977C332.47 27.928 332.923 28.3055 333.542 28.6453C334.214 28.9775 335.022 29.2871 335.973 29.574L342.202 31.4389C345.449 32.3902 347.925 33.8474 349.647 35.8029C351.368 37.7131 352.229 40.0763 352.229 42.8925C352.229 45.3237 351.587 47.4528 350.296 49.2649C349.058 51.0769 347.314 52.5115 345.071 53.5609C342.829 54.5651 340.179 55.0634 337.129 55.0634L337.121 55.0483Z" fill="#20154C"/>
<path d="M78.5024 89.9849C77.321 89.9849 76.2339 89.7747 75.2265 89.3544C74.2408 88.9195 73.371 88.3179 72.6245 87.5352C71.8925 86.7597 71.3272 85.8465 70.9213 84.8028C70.5154 83.7591 70.3125 82.614 70.3125 81.3746C70.3125 80.1353 70.5154 78.9684 70.9213 77.9175C71.3272 76.8738 71.8925 75.9606 72.6245 75.1851C73.3565 74.4096 74.2263 73.808 75.2265 73.3876C76.2266 72.9528 77.321 72.7354 78.5024 72.7354C79.6838 72.7354 80.684 72.9383 81.5972 73.3442C82.5249 73.75 83.3004 74.2719 83.931 74.9169C84.576 75.562 85.0326 76.2505 85.3008 76.9825L83.2859 77.903C82.8945 76.9753 82.293 76.2287 81.4667 75.6634C80.6477 75.0764 79.6548 74.7865 78.5024 74.7865C77.35 74.7865 76.2991 75.0619 75.3859 75.6127C74.4872 76.1635 73.7842 76.939 73.2768 77.9247C72.7695 78.9104 72.5158 80.0628 72.5158 81.3819C72.5158 82.701 72.7695 83.8244 73.2768 84.81C73.7842 85.7957 74.4872 86.564 75.3859 87.1221C76.2991 87.6729 77.3355 87.9483 78.5024 87.9483C79.6693 87.9483 80.6405 87.6657 81.4667 87.0931C82.2857 86.506 82.8945 85.7523 83.2859 84.8318L85.3008 85.7523C85.0326 86.4843 84.576 87.1728 83.931 87.8179C83.3004 88.4629 82.5249 88.9847 81.5972 89.3906C80.684 89.7965 79.6548 89.9994 78.5024 89.9994V89.9849Z" fill="#20154C"/>
<path d="M87.0907 89.7174L93.0774 73.0114H95.6793L101.666 89.7174H99.3104L97.9406 85.7963H90.8088L89.439 89.7174H87.0835H87.0907ZM91.5119 83.7742H97.252L94.0703 74.6059H94.7009L91.5191 83.7742H91.5119ZM90.5262 70.7211L93.1933 67.2422H95.5923L98.2812 70.7211H95.991L94.3964 68.6772L92.8019 70.7211H90.5117H90.5262Z" fill="#20154C"/>
<path d="M104.203 89.7177V73.0117H106.217L112.472 81.9119H111.443L117.654 73.0117H119.669V89.7177H117.451V75.7948L118.234 76.0413L112.023 84.7893H111.842L105.696 76.0413L106.391 75.7948V89.7177H104.195H104.203Z" fill="#20154C"/>
<path d="M122.199 89.7177L128.186 73.0117H130.788L136.774 89.7177H134.419L133.049 85.7967H125.917L124.547 89.7177H122.192H122.199ZM126.62 83.7746H132.36L129.179 74.6062H129.809L126.627 83.7746H126.62Z" fill="#20154C"/>
<path d="M139.303 89.7177V73.0117H145.203C146.312 73.0117 147.283 73.2219 148.116 73.6423C148.957 74.0626 149.602 74.6569 150.066 75.4325C150.544 76.208 150.784 77.1212 150.784 78.1648C150.784 79.3462 150.486 80.3464 149.885 81.1727C149.283 81.9916 148.479 82.586 147.464 82.9411L151.342 89.7105H148.783L144.703 82.47L146.159 83.3252H141.492V89.7177H139.296H139.303ZM141.499 81.3104H145.268C145.928 81.3104 146.5 81.1799 146.993 80.9262C147.486 80.6726 147.87 80.3029 148.138 79.8246C148.421 79.3462 148.566 78.7954 148.566 78.1648C148.566 77.5343 148.421 76.969 148.138 76.5051C147.87 76.0268 147.486 75.6644 146.993 75.4035C146.5 75.1498 145.928 75.0193 145.268 75.0193H141.499V81.2959V81.3104Z" fill="#20154C"/>
<path d="M152.654 89.7177L158.64 73.0117H161.242L167.229 89.7177H164.873L163.504 85.7967H156.372L155.002 89.7177H152.646H152.654ZM157.068 83.7746H162.808L159.626 74.6062H160.257L157.075 83.7746H157.068Z" fill="#20154C"/>
<path d="M174.063 89.7177V73.0117H179.535C181.224 73.0117 182.696 73.3524 183.957 74.0409C185.21 74.7294 186.182 75.7006 186.87 76.9545C187.559 78.1938 187.899 79.6579 187.899 81.3466C187.899 83.0353 187.559 84.4849 186.87 85.7387C186.182 86.9926 185.21 87.971 183.957 88.674C182.703 89.3626 181.231 89.7032 179.535 89.7032H174.063V89.7177ZM176.26 87.7028H179.557C180.797 87.7028 181.869 87.4419 182.761 86.9201C183.674 86.3983 184.377 85.6662 184.87 84.724C185.363 83.7673 185.609 82.6439 185.609 81.3611C185.609 80.0782 185.355 78.9404 184.848 77.9981C184.355 77.0559 183.652 76.3312 182.739 75.8238C181.84 75.302 180.782 75.0411 179.557 75.0411H176.26V87.7101V87.7028Z" fill="#20154C"/>
<path d="M191.11 89.7177V73.0117H201.989V75.0266H193.313V80.3174H201.547V82.3323H193.313V87.6884H201.989V89.7032H191.11V89.7177Z" fill="#20154C"/>
<path d="M207.83 89.7177L213.817 73.0117H216.419L222.406 89.7177H220.05L218.68 85.7967H211.549L210.179 89.7177H207.823H207.83ZM212.252 83.7746H217.992L214.81 74.6062H215.441L212.259 83.7746H212.252Z" fill="#20154C"/>
<path d="M224.935 89.7177V73.0117H230.835C231.944 73.0117 232.915 73.2219 233.748 73.6423C234.582 74.0626 235.234 74.6569 235.698 75.4325C236.176 76.208 236.415 77.1212 236.415 78.1648C236.415 79.3462 236.118 80.3464 235.517 81.1727C234.915 81.9916 234.111 82.586 233.096 82.9411L236.973 89.7105H234.415L230.335 82.47L231.791 83.3252H227.124V89.7177H224.928H224.935ZM227.131 81.3104H230.9C231.559 81.3104 232.132 81.1799 232.625 80.9262C233.118 80.6726 233.502 80.3029 233.77 79.8246C234.053 79.3462 234.198 78.7954 234.198 78.1648C234.198 77.5343 234.053 76.969 233.77 76.5051C233.502 76.0268 233.118 75.6644 232.625 75.4035C232.132 75.1498 231.552 75.0193 230.9 75.0193H227.131V81.2959V81.3104Z" fill="#20154C"/>
<path d="M239.902 89.7177V73.0117H246.917C247.918 73.0117 248.78 73.1929 249.498 73.548C250.23 73.9032 250.788 74.4178 251.179 75.0701C251.578 75.7151 251.781 76.4834 251.781 77.3821C251.781 78.2011 251.563 78.9549 251.128 79.6216C250.708 80.2812 250.092 80.7958 249.266 81.1654L249.244 80.3392C249.962 80.6073 250.549 80.9697 251.012 81.4118C251.491 81.8467 251.846 82.354 252.092 82.9338C252.332 83.4992 252.447 84.108 252.447 84.753C252.447 86.2968 251.955 87.5072 250.969 88.3841C249.983 89.2684 248.635 89.7105 246.932 89.7105H239.887L239.902 89.7177ZM242.098 87.7028H247.033C248.005 87.7028 248.78 87.4419 249.367 86.9201C249.947 86.3983 250.244 85.688 250.244 84.7893C250.244 83.8905 249.954 83.1803 249.367 82.6584C248.787 82.1221 248.005 81.8539 247.033 81.8539H242.098V87.7101V87.7028ZM242.098 79.8753H246.874C247.678 79.8753 248.331 79.6434 248.824 79.1795C249.316 78.7012 249.563 78.0924 249.563 77.3604C249.563 76.6283 249.316 76.0123 248.824 75.6136C248.331 75.2078 247.678 75.0048 246.874 75.0048H242.098V79.8681V79.8753Z" fill="#20154C"/>
<path d="M255.854 89.7177V73.0117H258.05V89.7177H255.854Z" fill="#20154C"/>
<path d="M265.102 89.7177V75.0266H260.572V73.0117H271.784V75.0266H267.32V89.7177H265.102Z" fill="#20154C"/>
<path d="M274.328 89.7177V73.0117H280.228C281.337 73.0117 282.308 73.2219 283.141 73.6423C283.975 74.0626 284.627 74.6569 285.091 75.4325C285.569 76.208 285.808 77.1212 285.808 78.1648C285.808 79.3462 285.511 80.3464 284.91 81.1727C284.308 81.9916 283.504 82.586 282.489 82.9411L286.367 89.7105H283.808L279.728 82.47L281.184 83.3252H276.517V89.7177H274.321H274.328ZM276.524 81.3104H280.293C280.952 81.3104 281.525 81.1799 282.018 80.9262C282.511 80.6726 282.895 80.3029 283.163 79.8246C283.446 79.3462 283.591 78.7954 283.591 78.1648C283.591 77.5343 283.446 76.969 283.163 76.5051C282.895 76.0268 282.511 75.6644 282.018 75.4035C281.525 75.1498 280.945 75.0193 280.293 75.0193H276.524V81.2959V81.3104Z" fill="#20154C"/>
<path d="M287.686 89.7177L293.673 73.0117H296.275L302.262 89.7177H299.906L298.536 85.7967H291.405L290.035 89.7177H287.679H287.686ZM292.108 83.7746H297.848L294.666 74.6062H295.289L292.108 83.7746Z" fill="#20154C"/>
<path d="M311.828 89.9849C310.647 89.9849 309.56 89.7747 308.552 89.3544C307.552 88.9195 306.682 88.3179 305.95 87.5352C305.218 86.7597 304.646 85.8465 304.226 84.8028C303.82 83.7591 303.617 82.614 303.617 81.3746C303.617 80.1353 303.82 78.9684 304.226 77.9175C304.631 76.8738 305.197 75.9606 305.929 75.1851C306.661 74.4096 307.523 73.808 308.531 73.3876C309.531 72.9528 310.625 72.7354 311.807 72.7354C312.988 72.7354 313.988 72.9383 314.901 73.3442C315.829 73.75 316.605 74.2719 317.235 74.9169C317.88 75.562 318.337 76.2505 318.605 76.9825L316.634 77.9465C316.242 76.9753 315.641 76.207 314.814 75.6344C313.995 75.0691 312.988 74.7792 311.807 74.7792C310.625 74.7792 309.603 75.0546 308.69 75.6054C307.791 76.1563 307.088 76.9318 306.581 77.9175C306.074 78.9032 305.82 80.0555 305.82 81.3746C305.82 82.6937 306.074 83.8171 306.581 84.8028C307.103 85.7885 307.813 86.5567 308.712 87.1148C309.625 87.6656 310.661 87.9411 311.828 87.9411C312.843 87.9411 313.763 87.7236 314.59 87.2888C315.409 86.8539 316.061 86.2596 316.539 85.4913C317.018 84.7303 317.257 83.8461 317.257 82.8459V81.8167L318.264 82.7589H311.807V80.8528H319.475V82.3313C319.475 83.4982 319.272 84.5491 318.873 85.4913C318.467 86.4335 317.916 87.238 317.213 87.9121C316.51 88.5716 315.699 89.079 314.771 89.4341C313.843 89.7965 312.865 89.9704 311.836 89.9704L311.828 89.9849Z" fill="#20154C"/>
<path d="M322.866 89.7177V73.0117H333.738V75.0266H325.062V80.3174H333.296V82.3323H325.062V87.6884H333.738V89.7032H322.866V89.7177Z" fill="#20154C"/>
<path d="M336.898 89.7177V73.0117H338.913L345.168 81.9119H344.132L350.343 73.0117H352.358V89.7177H350.14V75.7948L350.923 76.0413L344.711 84.7893H344.53L338.384 76.0413L339.08 75.7948V89.7177H336.884H336.898Z" fill="#20154C"/>
<path d="M305.878 0.55127H316.449V6.21391V11.8766H305.878V0.55127Z" fill="#FF4F4A"/>
<path d="M182.055 0.55127H193.38V6.21391V11.8766H182.055V0.55127Z" fill="#FF4F4A"/>
</svg>
